<svg width="172" height="132" viewBox="0 0 172 132" fill="none" xmlns="http://www.w3.org/2000/svg">
<path d="M10.8191 0C3.07862 0 0 1.23479 0 4.49816C0 6.17395 1.23145 7.76153 3.95822 7.76153V54.2425C3.95822 59.0935 6.59703 61.0339 12.1385 61.0339C33.5129 61.0339 48.1143 54.0661 48.1143 33.3393C48.1143 14.6411 36.5915 0 10.8191 0ZM10.9951 53.8015V7.14414C22.7818 7.14414 41.0775 11.2895 41.0775 31.6635C41.0775 53.4487 19.7911 54.4189 10.9951 53.8015Z" fill="black"/>
<path d="M70.439 27.2877C58.3005 27.2877 49.9442 37.4306 49.9442 51.1015C49.9442 62.5674 57.157 71.3873 68.0641 71.3873C80.5545 71.3873 89.3505 61.068 89.3505 48.5437C89.3505 36.9014 82.4896 27.2877 70.439 27.2877ZM69.9113 33.9027C77.5638 33.9027 82.7535 39.2828 82.7535 48.8965C82.7535 57.6283 77.0361 64.8606 68.5039 64.8606C60.6754 64.8606 56.5413 58.1574 56.5413 50.2195C56.5413 40.253 61.9069 33.9027 69.9113 33.9027Z" fill="black"/>
<path d="M92.7883 40.1961C92.7883 54.0434 100.617 60.3937 110.38 60.3937C117.593 60.3937 121.463 56.8658 123.311 53.0732L123.047 56.8003C122.607 64.4737 120.76 68.821 111.26 68.821C107 68.821 102.554 67.7056 99.2111 67C95.8686 66.2944 94.0214 67.1764 94.0214 69.3814C94.0214 71.3218 96 73 99.2111 73.7913C102.422 74.5827 107.5 75.5242 111.524 75.5242C119.44 75.5242 124.806 72.0844 127.269 65.9986C129.82 59.9129 129.556 55.2782 129.644 44.7825L129.732 35.4333V35.0805C129.732 30.0532 128.06 25.6432 124.718 22.6444C121.903 20.0867 127.709 16.9997 129.82 21.4979C130.435 22.6444 131.667 23.2618 132.986 23.2618C135.097 23.2618 136.329 21.5861 136.329 19.7339C136.329 16.9115 133.25 13.7363 128.676 13.7363C124.278 13.7363 120.848 16.2941 119.704 19.6457C117.945 19.1165 116.01 18.7637 113.283 18.7637C100.969 18.7637 92.7883 26.7016 92.7883 40.1961ZM99.8252 40.1961C99.8252 31.4644 105.015 25.3786 112.755 25.3786C119.704 25.3786 122.695 30.2296 122.695 36.7563V37.3737C122.695 46.2818 118.561 53.6024 110.82 53.6024C105.103 53.6024 99.8252 49.3688 99.8252 40.1961Z" fill="black"/>
<path d="M154.936 12.4418C143.149 12.4418 135.672 23.5549 135.672 35.3736C135.672 46.9277 142.621 56.1886 154.848 56.1886C164.435 56.1886 172 50.8967 172 44.1053C172 41.9885 171.296 40.4891 169.361 40.4891C168.13 40.4891 166.458 41.1065 165.667 43.1351C164.084 47.2805 159.246 49.0445 154.848 49.0445C149.746 49.0445 144.468 46.6631 143.853 39.4308C161.621 36.9612 168.13 33.786 170.505 29.4642C174.023 22.1437 165.843 12.4418 154.936 12.4418ZM143.149 33.1686C143.149 25.6717 148.339 19.2331 155.463 19.2331C158.982 19.2331 162.5 20.8207 164.259 24.1723C165.227 26.0245 164.787 27.3475 162.588 28.4058C158.63 30.258 148.339 32.9922 143.149 33.1686Z" fill="black"/>
<path d="M28.2853 67.8195C18.5217 67.8195 11.221 74.6991 11.221 83.8718C11.221 94.9849 21.6883 98.8657 28.6372 101.335C33.9148 103.187 40.2479 105.833 40.2479 113.066C40.2479 119.151 34.7944 122.591 28.6372 122.591C21.1605 122.591 18.6097 117.829 16.8505 115.712C15.9709 114.653 15.1792 113.948 13.6839 113.948C11.7488 113.948 10.7812 115.359 10.7812 117.211C10.7812 121.797 17.4662 130 29.077 130C39.8081 130 47.4607 123.12 47.4607 112.889C47.4607 100.541 36.4656 96.3079 31.1001 94.4557C26.4382 92.7799 18.6976 89.9575 18.6976 83.7836C18.6976 79.55 22.392 74.9637 28.7251 74.9637C37.4332 74.9637 38.7526 82.5488 42.7108 82.5488C44.558 82.5488 45.6135 80.873 45.6135 79.109C45.6135 74.3463 37.6971 67.8195 28.2853 67.8195Z" fill="black"/>
<path d="M51.5025 109.876C51.5025 117.902 57.6597 122.93 66.7196 122.93C71.8213 122.93 77.2749 120.813 79.5619 117.197C79.3859 120.637 81.0572 122.577 83.2562 122.577C85.2793 122.577 86.5107 120.989 86.5107 118.784V92.7657C86.5107 83.6812 79.8257 79.3594 69.1825 79.3594C59.6828 79.3594 56.0764 82.7992 54.9329 84.034C52.8219 86.2389 52.9978 88.0911 54.1413 89.2377C55.6366 90.7371 57.9236 90.1197 59.243 89.0613C60.9142 87.7383 63.5531 85.6216 69.7103 85.6216C76.3953 85.6216 79.4739 88.2675 79.5619 91.3545C79.6498 93.9123 77.8906 93.9123 75.3398 93.9123C62.5855 93.9123 51.5025 99.116 51.5025 109.876ZM58.5393 109.524C58.5393 103.967 64.8725 101.938 69.1825 101.145C74.1963 100.263 78.9461 100.615 80.0896 99.8216V107.142C79.8257 113.404 71.2056 116.403 66.4557 116.403C62.2336 116.403 58.5393 113.757 58.5393 109.524Z" fill="black"/>
<path d="M99.2111 88.6374C99.1231 85.9032 97.5399 84.7566 95.7807 84.7566C94.1094 84.7566 92.4381 85.9032 92.4381 88.6374L92.702 107.159C92.8779 119.419 92.5261 121.977 92.5261 123.829C92.5261 126.21 94.3733 127.445 96.1325 127.445C97.8917 127.445 99.563 126.298 99.563 124.005L99.7389 106.895C99.7389 96.3989 103.521 90.7542 111.789 90.7542C116.979 90.7542 120.41 92.9592 120.322 102.749L120.146 124.093C120.146 126.21 121.905 127.357 123.576 127.357C125.159 127.357 126.655 126.298 126.655 124.182C126.655 116.244 127.095 108.041 127.095 103.014C127.095 91.0188 123.84 84.1392 113.637 84.1392C108.799 84.1392 103.609 85.7268 100.091 90.666C99.6509 91.3716 99.2991 91.1952 99.2991 90.4014L99.2111 88.6374Z" fill="black"/>
<path d="M146.579 65.2845C138.311 65.2845 132.681 69.6063 132.681 76.9268C132.681 84.9529 139.366 87.4225 146.403 89.5393C151.857 91.1269 155.463 92.4499 155.463 96.1543C155.463 99.6822 152.12 102.24 147.195 102.24C142.885 102.24 139.718 99.3294 138.838 97.83C137.431 95.7133 135.584 94.1257 133.385 95.1841C130.394 96.5071 131.714 99.7704 132.417 101.093C133.209 102.416 137.431 108.767 146.931 108.767C155.815 108.767 162.06 104.621 162.06 96.2424C162.06 89.1865 157.486 85.8349 148.954 83.3654C143.148 81.6014 139.19 79.8374 139.19 76.574C139.19 73.6634 142.181 71.5467 145.875 71.5467C149.57 71.5467 152.472 73.6634 154.143 74.9864C155.463 76.0448 157.75 76.6622 159.245 75.1628C160.389 74.0162 160.565 72.1641 158.454 69.9591C157.31 68.7243 154.056 65.2845 146.579 65.2845Z" fill="black"/>
<path d="M101.768 22.5941C104.583 20.0363 98.7776 16.9493 96.6666 21.4475C96.0509 22.5941 94.8194 23.2115 93.5 23.2115C91.389 23.2115 90.1575 21.5357 90.1575 19.6835C90.1575 16.8611 93.2361 13.6859 97.8101 13.6859C102.208 13.6859 105.639 16.2437 106.782 19.5953L101.768 22.5941Z" fill="black"/>
<path d="M155.75 123C155.75 127.16 151.96 130.75 147 130.75C142.04 130.75 138.25 127.16 138.25 123C138.25 118.84 142.04 115.25 147 115.25C151.96 115.25 155.75 118.84 155.75 123Z" stroke="black" stroke-width="2.5"/>
<path d="M149.105 120.828C149.427 120.828 149.749 120.651 149.749 120.331C149.749 119.705 148.657 119 147.153 119C144.647 119 143 120.747 143 123.008C143 124.419 143.706 127 147 127C148.647 127 150 126.407 150 125.653C150 125.301 149.696 125.044 149.302 125.044C148.693 125.044 148.396 125.5 147 125.5C145.508 125.456 145 123.896 145 123.008C145 122.12 145.5 120.5 146.992 120.5C148.138 120.5 148.532 120.828 149.105 120.828Z" fill="black"/>
</svg>
