<svg width="603" height="462" viewBox="0 0 603 462" fill="none" xmlns="http://www.w3.org/2000/svg">
<path d="M10 73.5L13.396 41.8751C16.0146 17.4893 36.6102 -0.986837 61.0885 0.540643C89.2748 2.29951 115.086 4.79293 139.919 3.63648C159.181 2.73946 177.89 14.8934 181.339 33.8651C184.085 48.9653 196.71 60.3064 212.01 61.5223C312.763 69.5294 374.815 76.1588 437.5 68.2332C498.637 64.5913 531.173 64.6094 556.712 67.2873C578.776 69.6009 594.378 89.1308 594.934 111.309C596.773 184.684 598.918 260.858 602.454 326.5C601.646 358.065 601.344 381.81 601.722 400.731C602.34 431.716 578.265 461 547.273 461H526C361.029 457.48 307.294 458.985 204 461C164.301 461.211 131.178 461.285 51.7306 461.122C23.8189 461.065 1.88976 437.263 2.49379 409.358C3.71879 352.765 0.235926 304.716 1.04538 266C-2.99998 200.5 6.37279 123.025 10 73.5Z" fill="black"/>
</svg>
